<?xml version="1.0" encoding="utf-8"?>
<svg version="1.1" xmlns:xlink="http://www.w3.org/1999/xlink" width="659px" height="137px" xmlns="http://www.w3.org/2000/svg">
  <g transform="matrix(1 0 0 1 -196 -62 )">
    <path d="M 0 137  L 0 109.333333333333  C 0 109.333333333333  75.4464404202911 70.6089212300847  115.649016641452 64  C 124.762565382084 62.5018192510343  134.721076996504 59.79971707002  144.228946041351 60.3333333333333  C 162.420001472344 61.3542816635033  180.692999391038 66.8972701110393  200.391830559758 64  C 211.468107314069 62.7841765553748  230.768281280114 58.7792715698235  250.905194150277 46.6666666666667  C 265.925713086077 37.6316366954489  278.715233636616 22.0167762819685  292.778113968734 12.6666666666667  C 305.076896053533 4.48946840345265  319.028561047486 2.00624698261588  327.339889056984 1  C 331.628439021358 0.39340688532107  336.143121442891 1.52375719583938  340.632879475542 1  C 346.032048745786 0.370154530315403  358.965025844696 2.63558407508587  371.206757438225 11.3333333333333  C 382.924118598068 19.65851744295  397.449039496928 39.5765824172147  408.75945537065 49  C 420.555299764452 58.8278585602311  429.013181136168 57.9854603504348  435.013111447302 57.6666666666667  C 451.506727512741 56.7903130506254  466.806984371285 57.0359495233074  479.54462934947 52  C 496.52866882236 45.2851978812561  510.254975944211 32.5657969578864  528.728693898134 28  C 562.191557728718 19.7296213863977  594.907140254895 20.96309938052  618.788703983863 16.3333333333333  C 643.648397126357 11.5139435914884  659 23  659 23  L 659 137  L 0 137  Z " fill-rule="nonzero" fill="#3068f1" stroke="none" fill-opacity="0.109803921568627" transform="matrix(1 0 0 1 196 62 )" />
  </g>
</svg>