<?xml version="1.0" encoding="utf-8"?>
<svg version="1.1" xmlns:xlink="http://www.w3.org/1999/xlink" width="827px" height="156px" xmlns="http://www.w3.org/2000/svg">
  <g transform="matrix(1 0 0 1 -40 -525 )">
    <path d="M 0 156  L 0 142.4  C 0 142.4  26.1759152768745 95.3507317510923  72.4 88.8  C 98.0141027186832 85.170050008344  97.4854462739418 127.395066170389  123.6 125.6  C 186.139030527582 121.301182597007  208.333333333333 44.9017543859648  242 40.7999999999999  C 275.666666666667 36.6982456140352  252.584665112312 111.924206724457  318 112.8  C 339.908483337542 113.093315052461  328.8 14.2  360.4 1.60000000000002  C 392 -11  401.889014531056 94.8477898069054  431.6 93.6  C 458.445540403379 92.4725519821207  462 15  500.191306228599 10.5300719319104  C 538.382612457198 6.06014386382071  500.872739239965 10.395165630524  501.2 10.4  C 540.866666666667 10.9859649122808  578.466666666667 127.650877192982  601.2 125.6  C 623.933333333333 123.549122807018  685.866666666667 10.517192982456  717.2 10.4  C 741.761947670808 10.3081333648148  800.897368389554 85.5311757760119  824 129.631578947368  C 830.369072622018 141.789443696059  824 156  824 156  L 0 156  Z " fill-rule="nonzero" fill="#5471ee" stroke="none" fill-opacity="0.87843137254902" transform="matrix(1 0 0 1 40 525 )" />
  </g>
</svg>