<?xml version="1.0" encoding="utf-8"?>
<svg version="1.1" xmlns:xlink="http://www.w3.org/1999/xlink" width="827px" height="95px" xmlns="http://www.w3.org/2000/svg">
  <defs>
    <linearGradient gradientUnits="userSpaceOnUse" x1="413.5" y1="0" x2="413.5" y2="95" id="LinearGradient5">
      <stop id="Stop6" stop-color="#7165f0" offset="0" />
      <stop id="Stop7" stop-color="#3165ef" offset="1" />
    </linearGradient>
  </defs>
  <g transform="matrix(1 0 0 1 -40 -586 )">
    <path d="M 0 95  L 0 80  C 0 80  33.4425819435411 41.3931308364497  79.6666666666667 37.6666666666666  C 105.28076938535 35.6017250546467  121.885446273942 64.3544787596026  148 63.3333333333334  C 210.539030527582 60.8878982837264  208.333333333333 8.66666666666663  242 6.33333333333337  C 275.666666666667 4.00000000000011  288.084665112311 48.0017942444515  353.5 48.5  C 427.501650925184 49.0635994751738  446.333333333333 2.66666666666663  486 3  C 525.666666666667 3.33333333333337  557.076923076923 61.7948717948718  603.230769230769 63.3333333333334  C 649.384615384615 64.8717948717949  678.666666666667 0.666666666666629  710 0.600000000000023  C 734.561947670808 0.54774053687072  800.897368389554 54.9129443037193  824 80  C 830.369072622018 86.9161506055424  824 95  824 95  L 0 95  Z " fill-rule="nonzero" fill="url(#LinearGradient5)" stroke="none" transform="matrix(1 0 0 1 40 586 )" />
  </g>
</svg>