<?xml version="1.0" encoding="utf-8"?>
<svg version="1.1" xmlns:xlink="http://www.w3.org/1999/xlink" width="827px" height="258px" xmlns="http://www.w3.org/2000/svg">
  <g transform="matrix(1 0 0 1 -40 -423 )">
    <path d="M 0 258  L 0 231.410256410256  C 0 231.410256410256  20.7874630471788 107.874952962263  72.4 126.615384615385  C 101 137  75.5384615384615 208.461538461538  123.6 198.564102564103  C 171.661538461538 188.666666666667  164.769230769231 96.1538461538462  214 85.3846153846154  C 263.230769230769 74.6153846153845  249.384615384615 163.846153846154  303.230769230769 168.461538461538  C 357.076923076923 173.076923076923  318.615384615385 28.4615384615385  360.153846153846 3.84615384615381  C 411.432094874189 -26.5409565066424  401.889014531056 138.439589045552  431.6 136  C 459.116245494489 133.740622533263  498.373488397295 45.0912882283172  510.923076923077 40.7692307692308  C 548 28  584.769230769231 173.076923076923  649.384615384615 168.461538461538  C 714 163.846153846154  683.230769230769 36.1538461538461  737.076923076923 36.1538461538461  C 790.923076923077 36.1538461538461  800.897368389554 120.224414177459  824 206.446356275304  C 830.369072622018 230.216540559602  824 258  824 258  L 0 258  Z " fill-rule="nonzero" fill="#9494f4" stroke="none" fill-opacity="0.458823529411765" transform="matrix(1 0 0 1 40 423 )" />
  </g>
</svg>