<?xml version="1.0" encoding="utf-8"?>
<svg version="1.1" xmlns:xlink="http://www.w3.org/1999/xlink" width="66px" height="55px" xmlns="http://www.w3.org/2000/svg">
  <defs>
    <mask fill="white" id="clip8">
      <path d="M 0.397991588848657 20.548714416933  C 0.397991588848657 20.548714416933  33.639880952381 0.066601562500101  33.639880952381 0.066601562500101  C 33.639880952381 0.066601562500101  65.8222465063893 20.548714416933  65.8222465063893 20.548714416933  C 65.8222465063893 20.548714416933  53.5296767031319 54.6175941768169  53.5296767031319 54.6175941768169  C 53.5296767031319 54.6175941768169  12.690561392106 54.6175941768169  12.690561392106 54.6175941768169  C 12.690561392106 54.6175941768169  0.397991588848657 20.548714416933  0.397991588848657 20.548714416933  Z " fill-rule="evenodd" />
    </mask>
  </defs>
  <g transform="matrix(1 0 0 1 -1140 -156 )">
    <path d="M 0.397991588848657 20.548714416933  C 0.397991588848657 20.548714416933  33.639880952381 0.066601562500101  33.639880952381 0.066601562500101  C 33.639880952381 0.066601562500101  65.8222465063893 20.548714416933  65.8222465063893 20.548714416933  C 65.8222465063893 20.548714416933  53.5296767031319 54.6175941768169  53.5296767031319 54.6175941768169  C 53.5296767031319 54.6175941768169  12.690561392106 54.6175941768169  12.690561392106 54.6175941768169  C 12.690561392106 54.6175941768169  0.397991588848657 20.548714416933  0.397991588848657 20.548714416933  Z " fill-rule="nonzero" fill="#ffffff" stroke="none" fill-opacity="0" transform="matrix(1 0 0 1 1140 156 )" />
    <path d="M 0.397991588848657 20.548714416933  C 0.397991588848657 20.548714416933  33.639880952381 0.066601562500101  33.639880952381 0.066601562500101  C 33.639880952381 0.066601562500101  65.8222465063893 20.548714416933  65.8222465063893 20.548714416933  C 65.8222465063893 20.548714416933  53.5296767031319 54.6175941768169  53.5296767031319 54.6175941768169  C 53.5296767031319 54.6175941768169  12.690561392106 54.6175941768169  12.690561392106 54.6175941768169  C 12.690561392106 54.6175941768169  0.397991588848657 20.548714416933  0.397991588848657 20.548714416933  Z " stroke-width="2" stroke="#e9e9e9" fill="none" transform="matrix(1 0 0 1 1140 156 )" mask="url(#clip8)" />
  </g>
</svg>