<?xml version="1.0" encoding="utf-8"?>
<svg version="1.1" xmlns:xlink="http://www.w3.org/1999/xlink" width="127px" height="110px" xmlns="http://www.w3.org/2000/svg">
  <defs>
    <mask fill="white" id="clip46">
      <path d="M 0.00130616056231627 41.5292762057721  C 0.00130616056231627 41.5292762057721  63.7581300813008 0.124637953229012  63.7581300813008 0.124637953229012  C 63.7581300813008 0.124637953229012  126.482433676836 41.5292762057721  126.482433676836 41.5292762057721  C 126.482433676836 41.5292762057721  102.523881624009 109.461491601566  102.523881624009 109.461491601566  C 102.523881624009 109.461491601566  23.9598582133897 109.461491601566  23.9598582133897 109.461491601566  C 23.9598582133897 109.461491601566  0.00130616056231627 41.5292762057721  0.00130616056231627 41.5292762057721  Z " fill-rule="evenodd" />
    </mask>
  </defs>
  <g transform="matrix(1 0 0 1 -1108 -127 )">
    <path d="M 0.00130616056231627 41.5292762057721  C 0.00130616056231627 41.5292762057721  63.7581300813008 0.124637953229012  63.7581300813008 0.124637953229012  C 63.7581300813008 0.124637953229012  126.482433676836 41.5292762057721  126.482433676836 41.5292762057721  C 126.482433676836 41.5292762057721  102.523881624009 109.461491601566  102.523881624009 109.461491601566  C 102.523881624009 109.461491601566  23.9598582133897 109.461491601566  23.9598582133897 109.461491601566  C 23.9598582133897 109.461491601566  0.00130616056231627 41.5292762057721  0.00130616056231627 41.5292762057721  Z " fill-rule="nonzero" fill="#ffffff" stroke="none" fill-opacity="0" transform="matrix(1 0 0 1 1108 127 )" />
    <path d="M 0.00130616056231627 41.5292762057721  C 0.00130616056231627 41.5292762057721  63.7581300813008 0.124637953229012  63.7581300813008 0.124637953229012  C 63.7581300813008 0.124637953229012  126.482433676836 41.5292762057721  126.482433676836 41.5292762057721  C 126.482433676836 41.5292762057721  102.523881624009 109.461491601566  102.523881624009 109.461491601566  C 102.523881624009 109.461491601566  23.9598582133897 109.461491601566  23.9598582133897 109.461491601566  C 23.9598582133897 109.461491601566  0.00130616056231627 41.5292762057721  0.00130616056231627 41.5292762057721  Z " stroke-width="2" stroke="#e9e9e9" fill="none" transform="matrix(1 0 0 1 1108 127 )" mask="url(#clip46)" />
  </g>
</svg>