<?xml version="1.0" encoding="utf-8"?>
<svg version="1.1" xmlns:xlink="http://www.w3.org/1999/xlink" width="193px" height="164px" xmlns="http://www.w3.org/2000/svg">
  <defs>
    <mask fill="white" id="clip47">
      <path d="M 0.6575609987328 62.3903107407383  C 0.6575609987328 62.3903107407383  97.2866847826086 0.183116376413114  97.2866847826086 0.183116376413114  C 97.2866847826086 0.183116376413114  192.866895523006 62.3903107407383  192.866895523006 62.3903107407383  C 192.866895523006 62.3903107407383  156.358503672052 163.983283022141  156.358503672052 163.983283022141  C 156.358503672052 163.983283022141  37.1659528496868 163.983283022141  37.1659528496868 163.983283022141  C 37.1659528496868 163.983283022141  0.6575609987328 62.3903107407383  0.6575609987328 62.3903107407383  Z " fill-rule="evenodd" />
    </mask>
  </defs>
  <g transform="matrix(1 0 0 1 -1076 -97 )">
    <path d="M 0.6575609987328 62.3903107407383  C 0.6575609987328 62.3903107407383  97.2866847826086 0.183116376413114  97.2866847826086 0.183116376413114  C 97.2866847826086 0.183116376413114  192.866895523006 62.3903107407383  192.866895523006 62.3903107407383  C 192.866895523006 62.3903107407383  156.358503672052 163.983283022141  156.358503672052 163.983283022141  C 156.358503672052 163.983283022141  37.1659528496868 163.983283022141  37.1659528496868 163.983283022141  C 37.1659528496868 163.983283022141  0.6575609987328 62.3903107407383  0.6575609987328 62.3903107407383  Z " fill-rule="nonzero" fill="#ffffff" stroke="none" fill-opacity="0" transform="matrix(1 0 0 1 1076 97 )" />
    <path d="M 0.6575609987328 62.3903107407383  C 0.6575609987328 62.3903107407383  97.2866847826086 0.183116376413114  97.2866847826086 0.183116376413114  C 97.2866847826086 0.183116376413114  192.866895523006 62.3903107407383  192.866895523006 62.3903107407383  C 192.866895523006 62.3903107407383  156.358503672052 163.983283022141  156.358503672052 163.983283022141  C 156.358503672052 163.983283022141  37.1659528496868 163.983283022141  37.1659528496868 163.983283022141  C 37.1659528496868 163.983283022141  0.6575609987328 62.3903107407383  0.6575609987328 62.3903107407383  Z " stroke-width="2" stroke="#e9e9e9" fill="none" transform="matrix(1 0 0 1 1076 97 )" mask="url(#clip47)" />
  </g>
</svg>