<?xml version="1.0" encoding="utf-8"?>
<svg version="1.1" xmlns:xlink="http://www.w3.org/1999/xlink" width="254px" height="217px" xmlns="http://www.w3.org/2000/svg">
  <defs>
    <mask fill="white" id="clip48">
      <path d="M 0.262563323768572 82.4740645663933  C 0.262563323768572 82.4740645663933  127.626984782352 0  127.626984782352 0  C 127.626984782352 0  253.951675204012 82.4740645663933  253.951675204012 82.4740645663933  C 253.951675204012 82.4740645663933  205.699937081246 216.85421019399  205.699937081246 216.85421019399  C 205.699937081246 216.85421019399  48.5143014465345 216.85421019399  48.5143014465345 216.85421019399  C 48.5143014465345 216.85421019399  0.262563323768572 82.4740645663933  0.262563323768572 82.4740645663933  Z " fill-rule="evenodd" />
    </mask>
  </defs>
  <g transform="matrix(1 0 0 1 -1044 -68 )">
    <path d="M 0.262563323768572 82.4740645663933  C 0.262563323768572 82.4740645663933  127.626984782352 0  127.626984782352 0  C 127.626984782352 0  253.951675204012 82.4740645663933  253.951675204012 82.4740645663933  C 253.951675204012 82.4740645663933  205.699937081246 216.85421019399  205.699937081246 216.85421019399  C 205.699937081246 216.85421019399  48.5143014465345 216.85421019399  48.5143014465345 216.85421019399  C 48.5143014465345 216.85421019399  0.262563323768572 82.4740645663933  0.262563323768572 82.4740645663933  Z " fill-rule="nonzero" fill="#ffffff" stroke="none" fill-opacity="0" transform="matrix(1 0 0 1 1044 68 )" />
    <path d="M 0.262563323768572 82.4740645663933  C 0.262563323768572 82.4740645663933  127.626984782352 0  127.626984782352 0  C 127.626984782352 0  253.951675204012 82.4740645663933  253.951675204012 82.4740645663933  C 253.951675204012 82.4740645663933  205.699937081246 216.85421019399  205.699937081246 216.85421019399  C 205.699937081246 216.85421019399  48.5143014465345 216.85421019399  48.5143014465345 216.85421019399  C 48.5143014465345 216.85421019399  0.262563323768572 82.4740645663933  0.262563323768572 82.4740645663933  Z " stroke-width="2" stroke="#e9e9e9" fill="none" transform="matrix(1 0 0 1 1044 68 )" mask="url(#clip48)" />
  </g>
</svg>