<?xml version="1.0" encoding="utf-8"?>
<svg version="1.1" xmlns:xlink="http://www.w3.org/1999/xlink" width="9px" height="8px" xmlns="http://www.w3.org/2000/svg">
  <defs>
    <mask fill="white" id="clip49">
      <path d="M 0.0346153846153925 4.53073333333331  C 0.0346153846153925 6.44532046608011  2.73960373911757 7.99739999999994  4.88076923076932 7.99739999999994  C 7.02193472242081 7.99739999999994  8.75769230769225 6.44532046608011  8.75769230769225 4.53073333333331  C 8.75769230769225 2.61614620058663  7.02193472242081 0.197400000000016  4.88076923076932 0.197400000000016  C 2.73960373911757 0.197400000000016  0.0346153846153925 2.61614620058663  0.0346153846153925 4.53073333333331  Z " fill-rule="evenodd" />
    </mask>
  </defs>
  <g transform="matrix(1 0 0 1 -1167 -172 )">
    <path d="M 0.0346153846153925 4.53073333333331  C 0.0346153846153925 6.44532046608011  2.73960373911757 7.99739999999994  4.88076923076932 7.99739999999994  C 7.02193472242081 7.99739999999994  8.75769230769225 6.44532046608011  8.75769230769225 4.53073333333331  C 8.75769230769225 2.61614620058663  7.02193472242081 0.197400000000016  4.88076923076932 0.197400000000016  C 2.73960373911757 0.197400000000016  0.0346153846153925 2.61614620058663  0.0346153846153925 4.53073333333331  Z " fill-rule="nonzero" fill="#3964f0" stroke="none" transform="matrix(1 0 0 1 1167 172 )" />
    <path d="M 0.0346153846153925 4.53073333333331  C 0.0346153846153925 6.44532046608011  2.73960373911757 7.99739999999994  4.88076923076932 7.99739999999994  C 7.02193472242081 7.99739999999994  8.75769230769225 6.44532046608011  8.75769230769225 4.53073333333331  C 8.75769230769225 2.61614620058663  7.02193472242081 0.197400000000016  4.88076923076932 0.197400000000016  C 2.73960373911757 0.197400000000016  0.0346153846153925 2.61614620058663  0.0346153846153925 4.53073333333331  Z " stroke-width="2" stroke="#5ad8a6" fill="none" transform="matrix(1 0 0 1 1167 172 )" mask="url(#clip49)" />
  </g>
</svg>