<?xml version="1.0" encoding="utf-8"?>
<svg version="1.1" xmlns:xlink="http://www.w3.org/1999/xlink" width="10px" height="8px" xmlns="http://www.w3.org/2000/svg">
  <defs>
    <mask fill="white" id="clip13">
      <path d="M 0.589072950395651 4.28714749266453  C 0.589072950395651 6.05445869212315  3.37993395107257 7.48714749266458  5.58907295039565 7.48714749266458  C 7.79821194971873 7.48714749266458  9.58907295039555 6.05445869212315  9.58907295039555 4.28714749266453  C 9.58907295039555 2.51983629320603  7.79821194971873 0.287147492664531  5.58907295039565 0.287147492664531  C 3.37993395107257 0.287147492664531  0.589072950395651 2.51983629320603  0.589072950395651 4.28714749266453  Z " fill-rule="evenodd" />
    </mask>
  </defs>
  <g transform="matrix(1 0 0 1 -1158 -196 )">
    <path d="M 0.589072950395651 4.28714749266453  C 0.589072950395651 6.05445869212315  3.37993395107257 7.48714749266458  5.58907295039565 7.48714749266458  C 7.79821194971873 7.48714749266458  9.58907295039555 6.05445869212315  9.58907295039555 4.28714749266453  C 9.58907295039555 2.51983629320603  7.79821194971873 0.287147492664531  5.58907295039565 0.287147492664531  C 3.37993395107257 0.287147492664531  0.589072950395651 2.51983629320603  0.589072950395651 4.28714749266453  Z " fill-rule="nonzero" fill="#3964f0" stroke="none" transform="matrix(1 0 0 1 1158 196 )" />
    <path d="M 0.589072950395651 4.28714749266453  C 0.589072950395651 6.05445869212315  3.37993395107257 7.48714749266458  5.58907295039565 7.48714749266458  C 7.79821194971873 7.48714749266458  9.58907295039555 6.05445869212315  9.58907295039555 4.28714749266453  C 9.58907295039555 2.51983629320603  7.79821194971873 0.287147492664531  5.58907295039565 0.287147492664531  C 3.37993395107257 0.287147492664531  0.589072950395651 2.51983629320603  0.589072950395651 4.28714749266453  Z " stroke-width="2" stroke="#5ad8a6" fill="none" transform="matrix(1 0 0 1 1158 196 )" mask="url(#clip13)" />
  </g>
</svg>