<?xml version="1.0" encoding="utf-8"?>
<svg version="1.1" xmlns:xlink="http://www.w3.org/1999/xlink" width="9px" height="8px" xmlns="http://www.w3.org/2000/svg">
  <defs>
    <mask fill="white" id="clip51">
      <path d="M 0.0835892569515693 4.49885350352088  C 0.0835892569515693 6.41344063626756  2.78857761145349 7.96552017018738  4.92974310310524 7.96552017018738  C 7.07090859475699 7.96552017018738  8.80666618002843 6.41344063626756  8.80666618002843 4.49885350352088  C 8.80666618002843 2.5842663707742  7.07090859475699 0.165520170187587  4.92974310310524 0.165520170187587  C 2.78857761145349 0.165520170187587  0.0835892569515693 2.5842663707742  0.0835892569515693 4.49885350352088  Z " fill-rule="evenodd" />
    </mask>
  </defs>
  <g transform="matrix(1 0 0 1 -1154 -180 )">
    <path d="M 0.0835892569515693 4.49885350352088  C 0.0835892569515693 6.41344063626756  2.78857761145349 7.96552017018738  4.92974310310524 7.96552017018738  C 7.07090859475699 7.96552017018738  8.80666618002843 6.41344063626756  8.80666618002843 4.49885350352088  C 8.80666618002843 2.5842663707742  7.07090859475699 0.165520170187587  4.92974310310524 0.165520170187587  C 2.78857761145349 0.165520170187587  0.0835892569515693 2.5842663707742  0.0835892569515693 4.49885350352088  Z " fill-rule="nonzero" fill="#3964f0" stroke="none" transform="matrix(1 0 0 1 1154 180 )" />
    <path d="M 0.0835892569515693 4.49885350352088  C 0.0835892569515693 6.41344063626756  2.78857761145349 7.96552017018738  4.92974310310524 7.96552017018738  C 7.07090859475699 7.96552017018738  8.80666618002843 6.41344063626756  8.80666618002843 4.49885350352088  C 8.80666618002843 2.5842663707742  7.07090859475699 0.165520170187587  4.92974310310524 0.165520170187587  C 2.78857761145349 0.165520170187587  0.0835892569515693 2.5842663707742  0.0835892569515693 4.49885350352088  Z " stroke-width="2" stroke="#5ad8a6" fill="none" transform="matrix(1 0 0 1 1154 180 )" mask="url(#clip51)" />
  </g>
</svg>