<?xml version="1.0" encoding="utf-8"?>
<svg version="1.1" xmlns:xlink="http://www.w3.org/1999/xlink" width="10px" height="8px" xmlns="http://www.w3.org/2000/svg">
  <defs>
    <mask fill="white" id="clip52">
      <path d="M 0.552295441053603 4.48368013675164  C 0.552295441053603 6.39826726949832  3.34315644173027 7.95034680341814  5.5522954410536 7.95034680341814  C 7.76143444037669 7.95034680341814  9.55229544105375 6.39826726949832  9.55229544105375 4.48368013675164  C 9.55229544105375 2.56909300400457  7.76143444037669 0.15034680341822  5.5522954410536 0.15034680341822  C 3.34315644173027 0.15034680341822  0.552295441053603 2.56909300400457  0.552295441053603 4.48368013675164  Z " fill-rule="evenodd" />
    </mask>
  </defs>
  <g transform="matrix(1 0 0 1 -1235 -268 )">
    <path d="M 0.552295441053603 4.48368013675164  C 0.552295441053603 6.39826726949832  3.34315644173027 7.95034680341814  5.5522954410536 7.95034680341814  C 7.76143444037669 7.95034680341814  9.55229544105375 6.39826726949832  9.55229544105375 4.48368013675164  C 9.55229544105375 2.56909300400457  7.76143444037669 0.15034680341822  5.5522954410536 0.15034680341822  C 3.34315644173027 0.15034680341822  0.552295441053603 2.56909300400457  0.552295441053603 4.48368013675164  Z " fill-rule="nonzero" fill="#3964f0" stroke="none" transform="matrix(1 0 0 1 1235 268 )" />
    <path d="M 0.552295441053603 4.48368013675164  C 0.552295441053603 6.39826726949832  3.34315644173027 7.95034680341814  5.5522954410536 7.95034680341814  C 7.76143444037669 7.95034680341814  9.55229544105375 6.39826726949832  9.55229544105375 4.48368013675164  C 9.55229544105375 2.56909300400457  7.76143444037669 0.15034680341822  5.5522954410536 0.15034680341822  C 3.34315644173027 0.15034680341822  0.552295441053603 2.56909300400457  0.552295441053603 4.48368013675164  Z " stroke-width="2" stroke="#5ad8a6" fill="none" transform="matrix(1 0 0 1 1235 268 )" mask="url(#clip52)" />
  </g>
</svg>