<?xml version="1.0" encoding="utf-8"?>
<svg version="1.1" xmlns:xlink="http://www.w3.org/1999/xlink" width="147px" height="132px" xmlns="http://www.w3.org/2000/svg">
  <defs>
    <linearGradient gradientUnits="userSpaceOnUse" x1="0" y1="66" x2="147" y2="66" id="LinearGradient53">
      <stop id="Stop54" stop-color="#3564f0" stop-opacity="0.549019607843137" offset="0" />
      <stop id="Stop55" stop-color="#7465f0" offset="1" />
    </linearGradient>
    <mask fill="white" id="clip56">
      <path d="M 0.590120714587456 42.3567501021627  C 0.590120714587456 42.3567501021627  104.515957446808 0.107286102308829  104.515957446808 0.107286102308829  C 104.515957446808 0.107286102308829  146.949595092326 59.8740306653986  146.949595092326 59.8740306653986  C 146.949595092326 59.8740306653986  140.292141510602 118.96605719091  140.292141510602 118.96605719091  C 140.292141510602 118.96605719091  56.3210646008667 131.873584567163  56.3210646008667 131.873584567163  C 56.3210646008667 131.873584567163  0.590120714587456 42.3567501021627  0.590120714587456 42.3567501021627  Z " fill-rule="evenodd" />
    </mask>
  </defs>
  <g transform="matrix(1 0 0 1 -1067 -116 )">
    <path d="M 0.590120714587456 42.3567501021627  C 0.590120714587456 42.3567501021627  104.515957446808 0.107286102308829  104.515957446808 0.107286102308829  C 104.515957446808 0.107286102308829  146.949595092326 59.8740306653986  146.949595092326 59.8740306653986  C 146.949595092326 59.8740306653986  140.292141510602 118.96605719091  140.292141510602 118.96605719091  C 140.292141510602 118.96605719091  56.3210646008667 131.873584567163  56.3210646008667 131.873584567163  C 56.3210646008667 131.873584567163  0.590120714587456 42.3567501021627  0.590120714587456 42.3567501021627  Z " fill-rule="nonzero" fill="url(#LinearGradient53)" stroke="none" transform="matrix(1 0 0 1 1067 116 )" />
    <path d="M 0.590120714587456 42.3567501021627  C 0.590120714587456 42.3567501021627  104.515957446808 0.107286102308829  104.515957446808 0.107286102308829  C 104.515957446808 0.107286102308829  146.949595092326 59.8740306653986  146.949595092326 59.8740306653986  C 146.949595092326 59.8740306653986  140.292141510602 118.96605719091  140.292141510602 118.96605719091  C 140.292141510602 118.96605719091  56.3210646008667 131.873584567163  56.3210646008667 131.873584567163  C 56.3210646008667 131.873584567163  0.590120714587456 42.3567501021627  0.590120714587456 42.3567501021627  Z " stroke-width="4" stroke="#5b8ff9" fill="none" transform="matrix(1 0 0 1 1067 116 )" mask="url(#clip56)" />
  </g>
</svg>