<?xml version="1.0" encoding="utf-8"?>
<svg version="1.1" xmlns:xlink="http://www.w3.org/1999/xlink" width="9px" height="8px" xmlns="http://www.w3.org/2000/svg">
  <defs>
    <mask fill="white" id="clip20">
      <path d="M 0.0346153846153925 4.28439999999995  C 0.0346153846153925 6.05171119945851  2.73960373911757 7.48439999999988  4.88076923076932 7.48439999999988  C 7.02193472242081 7.48439999999988  8.75769230769225 6.05171119945851  8.75769230769225 4.28439999999995  C 8.75769230769225 2.51708880054139  7.02193472242081 0.284399999999948  4.88076923076932 0.284399999999948  C 2.73960373911757 0.284399999999948  0.0346153846153925 2.51708880054139  0.0346153846153925 4.28439999999995  Z " fill-rule="evenodd" />
    </mask>
  </defs>
  <g transform="matrix(1 0 0 1 -1167 -112 )">
    <path d="M 0.0346153846153925 4.28439999999995  C 0.0346153846153925 6.05171119945851  2.73960373911757 7.48439999999988  4.88076923076932 7.48439999999988  C 7.02193472242081 7.48439999999988  8.75769230769225 6.05171119945851  8.75769230769225 4.28439999999995  C 8.75769230769225 2.51708880054139  7.02193472242081 0.284399999999948  4.88076923076932 0.284399999999948  C 2.73960373911757 0.284399999999948  0.0346153846153925 2.51708880054139  0.0346153846153925 4.28439999999995  Z " fill-rule="nonzero" fill="#ffffff" stroke="none" transform="matrix(1 0 0 1 1167 112 )" />
    <path d="M 0.0346153846153925 4.28439999999995  C 0.0346153846153925 6.05171119945851  2.73960373911757 7.48439999999988  4.88076923076932 7.48439999999988  C 7.02193472242081 7.48439999999988  8.75769230769225 6.05171119945851  8.75769230769225 4.28439999999995  C 8.75769230769225 2.51708880054139  7.02193472242081 0.284399999999948  4.88076923076932 0.284399999999948  C 2.73960373911757 0.284399999999948  0.0346153846153925 2.51708880054139  0.0346153846153925 4.28439999999995  Z " stroke-width="2" stroke="#5b8ff9" fill="none" transform="matrix(1 0 0 1 1167 112 )" mask="url(#clip20)" />
  </g>
</svg>