<?xml version="1.0" encoding="utf-8"?>
<svg version="1.1" xmlns:xlink="http://www.w3.org/1999/xlink" width="10px" height="8px" xmlns="http://www.w3.org/2000/svg">
  <defs>
    <mask fill="white" id="clip21">
      <path d="M 0.451652435496423 4.42018516358496  C 0.451652435496423 6.18749636304347  3.24251343617334 7.62018516358489  5.45165243549642 7.62018516358489  C 7.66079143481951 7.62018516358489  9.45165243549658 6.18749636304347  9.45165243549658 4.42018516358496  C 9.45165243549658 2.65287396412634  7.66079143481951 0.420185163584961  5.45165243549642 0.420185163584961  C 3.24251343617334 0.420185163584961  0.451652435496423 2.65287396412634  0.451652435496423 4.42018516358496  Z " fill-rule="evenodd" />
    </mask>
  </defs>
  <g transform="matrix(1 0 0 1 -1209 -171 )">
    <path d="M 0.451652435496423 4.42018516358496  C 0.451652435496423 6.18749636304347  3.24251343617334 7.62018516358489  5.45165243549642 7.62018516358489  C 7.66079143481951 7.62018516358489  9.45165243549658 6.18749636304347  9.45165243549658 4.42018516358496  C 9.45165243549658 2.65287396412634  7.66079143481951 0.420185163584961  5.45165243549642 0.420185163584961  C 3.24251343617334 0.420185163584961  0.451652435496423 2.65287396412634  0.451652435496423 4.42018516358496  Z " fill-rule="nonzero" fill="#ffffff" stroke="none" transform="matrix(1 0 0 1 1209 171 )" />
    <path d="M 0.451652435496423 4.42018516358496  C 0.451652435496423 6.18749636304347  3.24251343617334 7.62018516358489  5.45165243549642 7.62018516358489  C 7.66079143481951 7.62018516358489  9.45165243549658 6.18749636304347  9.45165243549658 4.42018516358496  C 9.45165243549658 2.65287396412634  7.66079143481951 0.420185163584961  5.45165243549642 0.420185163584961  C 3.24251343617334 0.420185163584961  0.451652435496423 2.65287396412634  0.451652435496423 4.42018516358496  Z " stroke-width="2" stroke="#5b8ff9" fill="none" transform="matrix(1 0 0 1 1209 171 )" mask="url(#clip21)" />
  </g>
</svg>