<?xml version="1.0" encoding="utf-8"?>
<svg version="1.1" xmlns:xlink="http://www.w3.org/1999/xlink" width="9px" height="8px" xmlns="http://www.w3.org/2000/svg">
  <defs>
    <mask fill="white" id="clip22">
      <path d="M 0.0639029867792829 4.51758418983627  C 0.0639029867792829 6.43217132258295  2.7688913412812 7.98425085650277  4.91005683293295 7.98425085650277  C 7.0512223245847 7.98425085650277  8.78697990985614 6.43217132258295  8.78697990985614 4.51758418983627  C 8.78697990985614 2.60299705708959  7.0512223245847 0.184250856502981  4.91005683293295 0.184250856502981  C 2.7688913412812 0.184250856502981  0.0639029867792829 2.60299705708959  0.0639029867792829 4.51758418983627  Z " fill-rule="evenodd" />
    </mask>
  </defs>
  <g transform="matrix(1 0 0 1 -1202 -227 )">
    <path d="M 0.0639029867792829 4.51758418983627  C 0.0639029867792829 6.43217132258295  2.7688913412812 7.98425085650277  4.91005683293295 7.98425085650277  C 7.0512223245847 7.98425085650277  8.78697990985614 6.43217132258295  8.78697990985614 4.51758418983627  C 8.78697990985614 2.60299705708959  7.0512223245847 0.184250856502981  4.91005683293295 0.184250856502981  C 2.7688913412812 0.184250856502981  0.0639029867792829 2.60299705708959  0.0639029867792829 4.51758418983627  Z " fill-rule="nonzero" fill="#ffffff" stroke="none" transform="matrix(1 0 0 1 1202 227 )" />
    <path d="M 0.0639029867792829 4.51758418983627  C 0.0639029867792829 6.43217132258295  2.7688913412812 7.98425085650277  4.91005683293295 7.98425085650277  C 7.0512223245847 7.98425085650277  8.78697990985614 6.43217132258295  8.78697990985614 4.51758418983627  C 8.78697990985614 2.60299705708959  7.0512223245847 0.184250856502981  4.91005683293295 0.184250856502981  C 2.7688913412812 0.184250856502981  0.0639029867792829 2.60299705708959  0.0639029867792829 4.51758418983627  Z " stroke-width="2" stroke="#5b8ff9" fill="none" transform="matrix(1 0 0 1 1202 227 )" mask="url(#clip22)" />
  </g>
</svg>