<?xml version="1.0" encoding="utf-8"?>
<svg version="1.1" xmlns:xlink="http://www.w3.org/1999/xlink" width="10px" height="8px" xmlns="http://www.w3.org/2000/svg">
  <defs>
    <mask fill="white" id="clip23">
      <path d="M 0.522245637565801 4.49942518999546  C 0.522245637565801 6.26673638945408  3.31310663824272 7.6994251899954  5.5222456375658 7.6994251899954  C 7.73138463688914 7.6994251899954  9.52224563756595 6.26673638945408  9.52224563756595 4.49942518999546  C 9.52224563756595 2.73211399053696  7.73138463688914 0.499425189995463  5.5222456375658 0.499425189995463  C 3.31310663824272 0.499425189995463  0.522245637565801 2.73211399053696  0.522245637565801 4.49942518999546  Z " fill-rule="evenodd" />
    </mask>
  </defs>
  <g transform="matrix(1 0 0 1 -1120 -239 )">
    <path d="M 0.522245637565801 4.49942518999546  C 0.522245637565801 6.26673638945408  3.31310663824272 7.6994251899954  5.5222456375658 7.6994251899954  C 7.73138463688914 7.6994251899954  9.52224563756595 6.26673638945408  9.52224563756595 4.49942518999546  C 9.52224563756595 2.73211399053696  7.73138463688914 0.499425189995463  5.5222456375658 0.499425189995463  C 3.31310663824272 0.499425189995463  0.522245637565801 2.73211399053696  0.522245637565801 4.49942518999546  Z " fill-rule="nonzero" fill="#ffffff" stroke="none" transform="matrix(1 0 0 1 1120 239 )" />
    <path d="M 0.522245637565801 4.49942518999546  C 0.522245637565801 6.26673638945408  3.31310663824272 7.6994251899954  5.5222456375658 7.6994251899954  C 7.73138463688914 7.6994251899954  9.52224563756595 6.26673638945408  9.52224563756595 4.49942518999546  C 9.52224563756595 2.73211399053696  7.73138463688914 0.499425189995463  5.5222456375658 0.499425189995463  C 3.31310663824272 0.499425189995463  0.522245637565801 2.73211399053696  0.522245637565801 4.49942518999546  Z " stroke-width="2" stroke="#5b8ff9" fill="none" transform="matrix(1 0 0 1 1120 239 )" mask="url(#clip23)" />
  </g>
</svg>