<?xml version="1.0" encoding="utf-8"?>
<svg version="1.1" xmlns:xlink="http://www.w3.org/1999/xlink" width="9px" height="8px" xmlns="http://www.w3.org/2000/svg">
  <defs>
    <mask fill="white" id="clip61">
      <path d="M 0.0640023346605005 4.34248142532098  C 0.0640023346605005 6.25706855806766  2.76899068916268 7.80914809198748  4.91015618081443 7.80914809198748  C 7.05132167246592 7.80914809198748  8.78707925773736 6.25706855806766  8.78707925773736 4.34248142532098  C 8.78707925773736 2.42789429257391  7.05132167246592 0.00914809198762409  4.91015618081443 0.00914809198762409  C 2.76899068916268 0.00914809198762409  0.0640023346605005 2.42789429257391  0.0640023346605005 4.34248142532098  Z " fill-rule="evenodd" />
    </mask>
  </defs>
  <g transform="matrix(1 0 0 1 -1066 -154 )">
    <path d="M 0.0640023346605005 4.34248142532098  C 0.0640023346605005 6.25706855806766  2.76899068916268 7.80914809198748  4.91015618081443 7.80914809198748  C 7.05132167246592 7.80914809198748  8.78707925773736 6.25706855806766  8.78707925773736 4.34248142532098  C 8.78707925773736 2.42789429257391  7.05132167246592 0.00914809198762409  4.91015618081443 0.00914809198762409  C 2.76899068916268 0.00914809198762409  0.0640023346605005 2.42789429257391  0.0640023346605005 4.34248142532098  Z " fill-rule="nonzero" fill="#ffffff" stroke="none" transform="matrix(1 0 0 1 1066 154 )" />
    <path d="M 0.0640023346605005 4.34248142532098  C 0.0640023346605005 6.25706855806766  2.76899068916268 7.80914809198748  4.91015618081443 7.80914809198748  C 7.05132167246592 7.80914809198748  8.78707925773736 6.25706855806766  8.78707925773736 4.34248142532098  C 8.78707925773736 2.42789429257391  7.05132167246592 0.00914809198762409  4.91015618081443 0.00914809198762409  C 2.76899068916268 0.00914809198762409  0.0640023346605005 2.42789429257391  0.0640023346605005 4.34248142532098  Z " stroke-width="2" stroke="#5b8ff9" fill="none" transform="matrix(1 0 0 1 1066 154 )" mask="url(#clip61)" />
  </g>
</svg>