<?xml version="1.0" encoding="utf-8"?>
<svg version="1.1" xmlns:xlink="http://www.w3.org/1999/xlink" width="9px" height="8px" xmlns="http://www.w3.org/2000/svg">
  <defs>
    <mask fill="white" id="clip62">
      <path d="M 0.190659393730272 4.56586007995662  C 0.190659393730272 6.33317127941518  2.89564774823245 7.76586007995661  5.0368132398842 7.76586007995661  C 7.17797873153594 7.76586007995661  8.91373631680713 6.33317127941518  8.91373631680713 4.56586007995662  C 8.91373631680713 2.79854888049806  7.17797873153594 0.565860079956622  5.0368132398842 0.565860079956622  C 2.89564774823245 0.565860079956622  0.190659393730272 2.79854888049806  0.190659393730272 4.56586007995662  Z " fill-rule="evenodd" />
    </mask>
  </defs>
  <g transform="matrix(1 0 0 1 -1293 -147 )">
    <path d="M 0.190659393730272 4.56586007995662  C 0.190659393730272 6.33317127941518  2.89564774823245 7.76586007995661  5.0368132398842 7.76586007995661  C 7.17797873153594 7.76586007995661  8.91373631680713 6.33317127941518  8.91373631680713 4.56586007995662  C 8.91373631680713 2.79854888049806  7.17797873153594 0.565860079956622  5.0368132398842 0.565860079956622  C 2.89564774823245 0.565860079956622  0.190659393730272 2.79854888049806  0.190659393730272 4.56586007995662  Z " fill-rule="nonzero" fill="#ffffff" stroke="none" transform="matrix(1 0 0 1 1293 147 )" />
    <path d="M 0.190659393730272 4.56586007995662  C 0.190659393730272 6.33317127941518  2.89564774823245 7.76586007995661  5.0368132398842 7.76586007995661  C 7.17797873153594 7.76586007995661  8.91373631680713 6.33317127941518  8.91373631680713 4.56586007995662  C 8.91373631680713 2.79854888049806  7.17797873153594 0.565860079956622  5.0368132398842 0.565860079956622  C 2.89564774823245 0.565860079956622  0.190659393730272 2.79854888049806  0.190659393730272 4.56586007995662  Z " stroke-width="2" stroke="#5ad8a6" fill="none" transform="matrix(1 0 0 1 1293 147 )" mask="url(#clip62)" />
  </g>
</svg>