<?xml version="1.0" encoding="utf-8"?>
<svg version="1.1" xmlns:xlink="http://www.w3.org/1999/xlink" width="988px" height="250px" xmlns="http://www.w3.org/2000/svg">
  <defs>
    <mask fill="white" id="clip69">
      <path d="M 0 246  L 0 4  C 0 1.75999999999999  1.75999999999999 0  4 0  L 984 0  C 986.24 0  988 1.75999999999999  988 4  L 988 30.7521367521383  L 988 246  C 988 248.24  986.24 250  984 250  L 4 250  C 1.75999999999999 250  0 248.24  0 246  Z " fill-rule="evenodd" />
    </mask>
  </defs>
  <g transform="matrix(1 0 0 1 -529 -306 )">
    <path d="M 0 246  L 0 4  C 0 1.75999999999999  1.75999999999999 0  4 0  L 984 0  C 986.24 0  988 1.75999999999999  988 4  L 988 30.7521367521383  L 988 246  C 988 248.24  986.24 250  984 250  L 4 250  C 1.75999999999999 250  0 248.24  0 246  Z " fill-rule="nonzero" fill="#ffffff" stroke="none" transform="matrix(1 0 0 1 529 306 )" />
    <path d="M 0 246  L 0 4  C 0 1.75999999999999  1.75999999999999 0  4 0  L 984 0  C 986.24 0  988 1.75999999999999  988 4  L 988 30.7521367521383  L 988 246  C 988 248.24  986.24 250  984 250  L 4 250  C 1.75999999999999 250  0 248.24  0 246  Z " stroke-width="2" stroke="#40c8ef" fill="none" transform="matrix(1 0 0 1 529 306 )" mask="url(#clip69)" />
  </g>
</svg>