<?xml version="1.0" encoding="utf-8"?>
<svg version="1.1" xmlns:xlink="http://www.w3.org/1999/xlink" width="30px" height="31px" xmlns="http://www.w3.org/2000/svg">
  <defs>
    <filter x="181px" y="14px" width="30px" height="31px" filterUnits="userSpaceOnUse" id="filter33">
      <feOffset dx="1" dy="1" in="SourceAlpha" result="shadowOffsetInner" />
      <feGaussianBlur stdDeviation="2.5" in="shadowOffsetInner" result="shadowGaussian" />
      <feComposite in2="shadowGaussian" operator="atop" in="SourceAlpha" result="shadowComposite" />
      <feColorMatrix type="matrix" values="0 0 0 0 0  0 0 0 0 0  0 0 0 0 0  0 0 0 0.698039215686274 0  " in="shadowComposite" />
    </filter>
    <g id="widget34">
      <path d="M 195 18  C 200.6 18  205 22.62  205 28.5  C 205 34.38  200.6 39  195 39  C 189.4 39  185 34.38  185 28.5  C 185 22.62  189.4 18  195 18  Z " fill-rule="nonzero" fill="#70b603" stroke="none" />
      <path d="M 195 18.5  C 200.32 18.5  204.5 22.9  204.5 28.5  C 204.5 34.1  200.32 38.5  195 38.5  C 189.68 38.5  185.5 34.1  185.5 28.5  C 185.5 22.9  189.68 18.5  195 18.5  Z " stroke-width="1" stroke="#ffffff" fill="none" />
    </g>
  </defs>
  <g transform="matrix(1 0 0 1 -181 -14 )">
    <use xlink:href="#widget34" filter="url(#filter33)" />
    <use xlink:href="#widget34" />
  </g>
</svg>